<?xml version="1.0" encoding="utf-8"?>
<!-- Generator: Adobe Illustrator 18.0.0, SVG Export Plug-In . SVG Version: 6.00 Build 0)  -->
<!DOCTYPE svg PUBLIC "-//W3C//DTD SVG 1.1//EN" "http://www.w3.org/Graphics/SVG/1.1/DTD/svg11.dtd">
<svg version="1.1" id="Layer_1" xmlns="http://www.w3.org/2000/svg" xmlns:xlink="http://www.w3.org/1999/xlink" x="0px" y="0px"
	 viewBox="0 0 63.2 63.2" enable-background="new 0 0 63.2 63.2" xml:space="preserve">
<g>
	<circle fill="#EB2C29" cx="31.6" cy="31.6" r="31.6"/>
	<g>
		<polygon fill="#FFFFFF" points="32.7,32.4 34.5,33.2 34.3,31.9 32.7,31 		"/>
		<polygon fill="#FFFFFF" points="33.4,26.5 33.1,27.7 34.3,28.9 34.6,27.8 		"/>
		<polygon fill="#FFFFFF" points="36.1,38.5 35.5,37.1 33.4,36.7 33.9,38.3 		"/>
		<polygon fill="#FFFFFF" points="36.2,24 35.4,22.8 34.7,23.6 35.6,24.9 		"/>
		<polygon fill="#FFFFFF" points="37.4,21.1 37.9,22.2 38.8,21.7 38.4,20.7 		"/>
		<path fill="#FFFFFF" d="M28.2,42.7h-1.3c-0.7,0-1.4,0.6-1.4,1.4s0,4,0,4h1.4V47h1.3v1.1h1.5c0,0,0-3.2,0-4S29,42.7,28.2,42.7z
			 M28.2,45.6h-1.3v-1.5h1.3V45.6z"/>
		<path fill="#FFFFFF" d="M23.9,45v-0.9c0-0.5-0.5-1.4-1.4-1.4s-2.9,0-2.9,0v5.4h1.5v-1.5l1.2,1.6h1.8l-1.4-1.8
			C22.7,46.4,23.9,46.1,23.9,45z M22.5,45.3h-1.4v-1.1h1.3L22.5,45.3L22.5,45.3z"/>
		<rect x="31.2" y="42.7" fill="#FFFFFF" width="1.5" height="5.4"/>
		<polygon fill="#FFFFFF" points="35.7,42.7 34.3,42.7 34.3,48.2 37.9,48.2 37.9,46.7 35.7,46.7 		"/>
		<path fill="#FFFFFF" d="M21.1,12.9c-2.3,0-4.2,1.9-4.2,4.2v33.2h25.2c2.3,0,4.2-1.9,4.2-4.2V12.9H21.1z M45.7,45.7
			c0,2.2-1.7,3.9-3.9,3.9H17.7V17.5c0-2.2,1.7-3.9,3.9-3.9h24.1V45.7z"/>
		<polygon fill="#FFFFFF" points="23.1,29.2 23.7,27.4 21.7,26.5 21.1,28.5 		"/>
		<path fill="#FFFFFF" d="M41.7,44.7c-0.6,0-1.4,0-1.4,0v-0.6h2.5v-1.3c0,0-1.6,0-2.5,0s-1.5,0.7-1.5,1.4v0.6c0,0.8,0.8,1.4,1.5,1.4
			s1.3,0,1.3,0v0.7h-2.7v1.4c0,0,1.9,0,2.6,0c0.8,0,1.5-0.6,1.5-1.3v-0.7C43,45.3,42.3,44.7,41.7,44.7z"/>
		<polygon fill="#FFFFFF" points="21.7,34.8 19.4,34.4 18.8,36.7 21.2,37 		"/>
		<path fill="#FFFFFF" d="M34.1,40.7c-2.8-7.1-2.4-12.5-0.5-16.2c2.8-5.3,6.9-5.7,10.7-3.4c0.1-0.3,0.3-0.7,0.3-0.7
			c-2.2-2.1-4.2-3.1-7.5-3.2c-5-0.2-14,4.5-15.3,23.6L34.1,40.7L34.1,40.7z"/>
		<polygon fill="#FFFFFF" points="27.3,21.4 25.7,20.2 24.6,21.7 26.3,22.8 		"/>
		<polygon fill="#FFFFFF" points="42.5,20.7 41.4,20.5 41.4,21.2 42.5,21.2 		"/>
		<polygon fill="#FFFFFF" points="42.9,17.9 41.5,16.9 41.5,17.6 42.9,18.4 		"/>
		<polygon fill="#FFFFFF" points="32.1,17.5 31.1,16.2 29.6,17 30.8,18.3 		"/>
		<polygon fill="#FFFFFF" points="37.2,16.6 36.9,15.5 35.2,15.4 35.7,16.5 		"/>
	</g>
</g>
</svg>
